# xmcd CD database file
#
# Track frame offsets:
#	150
#	12592
#	23040
#	33582
#	55930
#	66590
#	76955
#	89092
#	100940
#	110604
#	132780
#
# Disc length: 1921 seconds
#
# Revision: 0
# Processed by: cddbd v1.4PL0 Copyright (c) Steve Scherf et al.
# Submitted via: CDex 1.40Release
#
DISCID=96077f0b
DTITLE=Johnny Bush - Sound Of A Heartache
DYEAR=1900
DGENRE=Country
TTITLE0=Sound Of A Heartache
TTITLE1=Lonely Street
TTITLE2=You Ought To Hear Me Cry
TTITLE3=Farewell Party
TTITLE4=An Eye For An Eye
TTITLE5=Way To Survive
TTITLE6=A Moment Isn't Very Long
TTITLE7=I Can Feel You In His Arms
TTITLE8=Jealously Insane
TTITLE9=Danny Boy
TTITLE10=Conscience Turn You Back
EXTD=ID3G: 2
EXTT0=
EXTT1=
EXTT2=
EXTT3=
EXTT4=
EXTT5=
EXTT6=
EXTT7=
EXTT8=
EXTT9=
EXTT10=
PLAYORDER=
